<svg width="419" height="299" viewBox="0 0 419 299" fill="none" xmlns="http://www.w3.org/2000/svg">
<path d="M343.886 149.5V134.568C343.886 98.9267 329.728 64.745 304.526 39.5427C279.323 14.3403 245.142 0.181824 209.5 0.181824C173.859 0.181824 139.677 14.3403 114.475 39.5427C89.2722 64.745 75.1137 98.9267 75.1137 134.568V149.5C55.3129 149.5 36.323 157.366 22.3217 171.367C8.32044 185.368 0.45459 204.358 0.45459 224.159C0.45459 243.96 8.32044 262.95 22.3217 276.951C36.323 290.952 55.3129 298.818 75.1137 298.818H104.977V134.568C104.977 106.847 115.99 80.2613 135.591 60.6595C155.193 41.0576 181.779 30.0455 209.5 30.0455C237.221 30.0455 263.807 41.0576 283.409 60.6595C303.011 80.2613 314.023 106.847 314.023 134.568V298.818H343.886C363.687 298.818 382.677 290.952 396.678 276.951C410.68 262.95 418.545 243.96 418.545 224.159C418.545 204.358 410.68 185.368 396.678 171.367C382.677 157.366 363.687 149.5 343.886 149.5ZM30.3182 224.159C30.3182 212.279 35.0377 200.885 43.4385 192.484C51.8393 184.083 63.2332 179.364 75.1137 179.364V268.955C63.2332 268.955 51.8393 264.235 43.4385 255.834C35.0377 247.433 30.3182 236.04 30.3182 224.159ZM343.886 268.955V179.364C355.767 179.364 367.161 184.083 375.562 192.484C383.962 200.885 388.682 212.279 388.682 224.159C388.682 236.04 383.962 247.433 375.562 255.834C367.161 264.235 355.767 268.955 343.886 268.955Z" fill="#A5A508"/>
</svg>
