<svg width="389" height="419" viewBox="0 0 389 419" fill="none" xmlns="http://www.w3.org/2000/svg">
<path d="M328.886 209.5H209.432V149.773H179.568V209.5H60.1136C52.1933 209.5 44.5974 212.646 38.9969 218.247C33.3963 223.847 30.25 231.443 30.25 239.364V299.091H60.1136V239.364H179.568V299.091H209.432V239.364H328.886V299.091H358.75V239.364C358.75 231.443 355.604 223.847 350.003 218.247C344.403 212.646 336.807 209.5 328.886 209.5ZM254.227 119.909V0.454544H134.773V119.909H254.227ZM164.636 90.0455V30.3182H224.364V90.0455H164.636ZM343.818 328.955C334.584 328.982 325.584 331.867 318.056 337.214C310.527 342.562 304.838 350.108 301.77 358.818H236.548C233.507 350.09 227.826 342.524 220.291 337.17C212.757 331.817 203.743 328.94 194.5 328.94C185.257 328.94 176.243 331.817 168.709 337.17C161.174 342.524 155.493 350.09 152.452 358.818H87.2298C83.7075 348.855 76.7765 340.459 67.662 335.112C58.5474 329.765 47.8361 327.813 37.4213 329.6C27.0064 331.387 17.5585 336.798 10.7475 344.877C3.93645 352.956 0.200806 363.183 0.200806 373.75C0.200806 384.317 3.93645 394.544 10.7475 402.623C17.5585 410.702 27.0064 416.113 37.4213 417.9C47.8361 419.687 58.5474 417.735 67.662 412.388C76.7765 407.041 83.7075 398.645 87.2298 388.682H152.452C155.493 397.41 161.174 404.976 168.709 410.33C176.243 415.683 185.257 418.56 194.5 418.56C203.743 418.56 212.757 415.683 220.291 410.33C227.826 404.976 233.507 397.41 236.548 388.682H301.77C304.521 396.404 309.341 403.222 315.705 408.39C322.068 413.558 329.73 416.877 337.852 417.986C345.975 419.094 354.245 417.948 361.761 414.674C369.276 411.399 375.747 406.122 380.466 399.419C385.185 392.716 387.971 384.845 388.519 376.665C389.067 368.486 387.356 360.313 383.574 353.04C379.791 345.768 374.082 339.674 367.071 335.427C360.06 331.179 352.016 328.94 343.818 328.955ZM45.1818 388.682C42.2286 388.682 39.3417 387.806 36.8861 386.165C34.4306 384.525 32.5168 382.193 31.3866 379.464C30.2565 376.736 29.9608 373.733 30.5369 370.837C31.1131 367.94 32.5352 365.28 34.6234 363.192C36.7117 361.103 39.3723 359.681 42.2688 359.105C45.1653 358.529 48.1675 358.825 50.896 359.955C53.6244 361.085 55.9564 362.999 57.5972 365.454C59.2379 367.91 60.1136 370.797 60.1136 373.75C60.1136 377.71 58.5405 381.508 55.7402 384.308C52.9399 387.109 49.142 388.682 45.1818 388.682ZM194.5 388.682C191.547 388.682 188.66 387.806 186.204 386.165C183.749 384.525 181.835 382.193 180.705 379.464C179.575 376.736 179.279 373.733 179.855 370.837C180.431 367.94 181.853 365.28 183.942 363.192C186.03 361.103 188.69 359.681 191.587 359.105C194.483 358.529 197.486 358.825 200.214 359.955C202.943 361.085 205.275 362.999 206.915 365.454C208.556 367.91 209.432 370.797 209.432 373.75C209.432 377.71 207.859 381.508 205.058 384.308C202.258 387.109 198.46 388.682 194.5 388.682ZM343.818 388.682C340.865 388.682 337.978 387.806 335.522 386.165C333.067 384.525 331.153 382.193 330.023 379.464C328.893 376.736 328.597 373.733 329.173 370.837C329.749 367.94 331.172 365.28 333.26 363.192C335.348 361.103 338.009 359.681 340.905 359.105C343.802 358.529 346.804 358.825 349.532 359.955C352.261 361.085 354.593 362.999 356.234 365.454C357.874 367.91 358.75 370.797 358.75 373.75C358.75 377.71 357.177 381.508 354.377 384.308C351.576 387.109 347.778 388.682 343.818 388.682Z" fill="#9A3324"/>
</svg>
