<svg width="657" height="657" viewBox="0 0 657 657" fill="none" xmlns="http://www.w3.org/2000/svg">
<path d="M477.818 388.227L499.126 416.643L433.023 492.198L366.92 416.643L388.227 388.227H477.818ZM492.75 358.364H373.295L328.5 418.091L433.023 537.545L537.545 418.091L492.75 358.364Z" fill="#D86018"/>
<path d="M328.5 507.682H209.045V149.318H328.5V238.909C328.524 246.822 331.678 254.404 337.273 260C342.868 265.595 350.451 268.749 358.364 268.773H447.955V313.568H477.818V238.909C477.871 236.947 477.498 234.996 476.724 233.192C475.951 231.387 474.796 229.772 473.339 228.457L368.816 123.934C367.507 122.469 365.893 121.308 364.087 120.534C362.281 119.76 360.327 119.392 358.364 119.455H209.045C201.132 119.478 193.55 122.632 187.955 128.228C182.359 133.823 179.205 141.405 179.182 149.318V507.682C179.205 515.595 182.359 523.177 187.955 528.772C193.55 534.368 201.132 537.522 209.045 537.545H328.5V507.682ZM358.364 155.291L441.982 238.909H358.364V155.291Z" fill="#D86018"/>
</svg>
