<svg width="405" height="405" viewBox="0 0 405 405" fill="none" xmlns="http://www.w3.org/2000/svg">
<path d="M404.614 383.5L291.849 270.735C318.947 238.203 332.46 196.477 329.576 154.235C326.693 111.994 307.635 72.491 276.368 43.9433C245.1 15.3955 204.031 0.00130165 161.702 0.963084C119.374 1.92487 79.0455 19.1686 49.107 49.1071C19.1685 79.0455 1.92481 119.374 0.963031 161.702C0.00124825 204.031 15.3955 245.1 43.9432 276.368C72.491 307.635 111.994 326.693 154.235 329.576C196.477 332.46 238.203 318.947 270.735 291.849L383.5 404.614L404.614 383.5ZM31.3181 165.705C31.3181 139.125 39.1998 113.143 53.9663 91.0435C68.7329 68.9438 89.7212 51.7191 114.277 41.5477C138.833 31.3764 165.854 28.7151 191.922 33.9004C217.99 39.0857 241.936 51.8848 260.73 70.679C279.524 89.4733 292.323 113.419 297.509 139.487C302.694 165.555 300.033 192.576 289.861 217.132C279.69 241.688 262.465 262.676 240.366 277.443C218.266 292.209 192.284 300.091 165.704 300.091C130.075 300.051 95.9164 285.88 70.7226 260.686C45.5289 235.493 31.3577 201.334 31.3181 165.705Z" fill="#00B2A9"/>
</svg>
